<svg width="24" height="24" viewBox="0 0 24 24" fill="none" xmlns="http://www.w3.org/2000/svg">
<path d="M3.98999 14.6601L2.47 13.14C1.85 12.52 1.85 11.5 2.47 10.88L3.98999 9.36002C4.24999 9.10002 4.46 8.59001 4.46 8.23001V6.07999C4.46 5.19999 5.18 4.48001 6.06 4.48001H8.21C8.57 4.48001 9.08 4.27004 9.34 4.01004L10.86 2.49002C11.48 1.87002 12.5 1.87002 13.12 2.49002L14.64 4.01004C14.9 4.27004 15.41 4.48001 15.77 4.48001H17.92C18.8 4.48001 19.52 5.19999 19.52 6.07999V8.23001C19.52 8.59001 19.73 9.10002 19.99 9.36002L21.51 10.88C22.13 11.5 22.13 12.52 21.51 13.14L19.99 14.6601C19.73 14.9201 19.52 15.4301 19.52 15.7901V17.94C19.52 18.82 18.8 19.5401 17.92 19.5401H15.77C15.41 19.5401 14.9 19.75 14.64 20.01L13.12 21.5301C12.5 22.1501 11.48 22.1501 10.86 21.5301L9.34 20.01C9.08 19.75 8.57 19.5401 8.21 19.5401H6.06C5.18 19.5401 4.46 18.82 4.46 17.94V15.7901C4.46 15.4201 4.24999 14.9101 3.98999 14.6601Z" stroke="#324BFF" stroke-width="1.5" stroke-linecap="round" stroke-linejoin="round"/>
<path d="M8 12.5L10.6667 15L16 10" stroke="#324BFF" stroke-opacity="0.4" stroke-width="1.5" stroke-linecap="round" stroke-linejoin="round"/>
</svg>
