<svg width="42" height="42" viewBox="0 0 42 42" fill="none" xmlns="http://www.w3.org/2000/svg">
<circle cx="21" cy="21" r="21" fill="#324BFF"/>
<path d="M29.42 21.3699C30.29 21.7199 30.83 22.7499 30.63 23.6599L30.22 25.5199C29.51 28.7199 27 30.9999 23.38 30.9999H18.62C15 30.9999 12.49 28.7199 11.78 25.5199L11.37 23.6599C11.17 22.7499 11.71 21.7199 12.58 21.3699L14 20.7999L19.51 18.5899C20.47 18.2099 21.53 18.2099 22.49 18.5899L28 20.7999L29.42 21.3699Z" stroke="white" stroke-width="1.5" stroke-linecap="round" stroke-linejoin="round"/>
<path d="M21 31V19" stroke="white" stroke-width="1.5" stroke-linecap="round" stroke-linejoin="round"/>
<g opacity="0.4">
<path d="M28 17V20.8L22.49 18.59C21.53 18.21 20.47 18.21 19.51 18.59L14 20.8V17C14 15.35 15.35 14 17 14H25C26.65 14 28 15.35 28 17Z" stroke="white" stroke-width="1.5" stroke-linecap="round" stroke-linejoin="round"/>
<path d="M23.5 14H18.5V12C18.5 11.45 18.95 11 19.5 11H22.5C23.05 11 23.5 11.45 23.5 12V14Z" stroke="white" stroke-width="1.5" stroke-linecap="round" stroke-linejoin="round"/>
</g>
</svg>
