<svg width="93" height="93" viewBox="0 0 93 93" fill="none" xmlns="http://www.w3.org/2000/svg">
<path d="M55.2188 29.0625H39.2344V31.9688H55.2188V29.0625Z" fill="#324BFF"/>
<path d="M56.6719 21.7969H40.6875V24.7031H56.6719V21.7969Z" fill="#324BFF"/>
<path d="M55.2188 14.5312H39.2344V17.4375H55.2188V14.5312Z" fill="#324BFF"/>
<path d="M18.8906 27.6094H30.5156V24.7031H18.8906C18.5052 24.7031 18.1356 24.55 17.8631 24.2775C17.5906 24.005 17.4375 23.6354 17.4375 23.25C17.4375 22.8646 17.5906 22.495 17.8631 22.2225C18.1356 21.95 18.5052 21.7969 18.8906 21.7969H30.5156V18.8906H18.8906C17.7344 18.8906 16.6256 19.3499 15.8081 20.1675C14.9905 20.985 14.5312 22.0938 14.5312 23.25C14.5312 24.4062 14.9905 25.515 15.8081 26.3325C16.6256 27.1501 17.7344 27.6094 18.8906 27.6094Z" fill="#324BFF"/>
<path d="M42.1407 58.125H35.5188L39.1418 48.4633C39.2527 48.1676 39.2643 47.8438 39.1747 47.541C39.0852 47.2381 38.8994 46.9727 38.6455 46.7849C38.3916 46.5971 38.0834 46.4971 37.7676 46.5001C37.4518 46.503 37.1456 46.6088 36.8953 46.8014L18.0047 61.3327C17.7641 61.5177 17.5875 61.7734 17.4997 62.0639C17.4119 62.3544 17.4172 62.6651 17.5149 62.9524C17.6126 63.2397 17.7979 63.4892 18.0446 63.6659C18.2913 63.8426 18.5872 63.9376 18.8907 63.9375H25.5126L21.8895 73.5993C21.7786 73.895 21.7671 74.2187 21.8567 74.5216C21.9462 74.8244 22.132 75.0898 22.3859 75.2776C22.6398 75.4655 22.948 75.5654 23.2638 75.5625C23.5795 75.5595 23.8858 75.4537 24.1361 75.2612L43.0267 60.7299C43.2672 60.5449 43.4438 60.2892 43.5317 59.9987C43.6195 59.7082 43.6142 59.3975 43.5164 59.1102C43.4187 58.8229 43.2335 58.5734 42.9868 58.3967C42.74 58.22 42.4441 58.125 42.1407 58.125ZM26.3974 69.855L28.97 62.9946C29.0524 62.7747 29.0803 62.5382 29.0514 62.3052C29.0224 62.0722 28.9375 61.8497 28.8037 61.6567C28.67 61.4637 28.4915 61.306 28.2835 61.1971C28.0755 61.0882 27.8442 61.0313 27.6094 61.0313H23.163L34.634 52.2075L32.0614 59.068C31.979 59.2878 31.951 59.5244 31.98 59.7574C32.0089 59.9904 32.0939 60.2129 32.2276 60.4059C32.3614 60.5988 32.5399 60.7565 32.7479 60.8655C32.9558 60.9744 33.1871 61.0313 33.4219 61.0313H37.8684L26.3974 69.855Z" fill="#324BFF"/>
<path d="M81.3752 47.2523V27.6094H84.2815V30.5156H87.1877V15.9844H84.2815V18.8906H81.3752V10.1719C81.3752 9.78648 81.2222 9.41686 80.9497 9.14429L75.1372 3.33179C74.8646 3.05933 74.495 2.90626 74.1096 2.90625H53.7659C53.3805 2.90626 53.0108 3.05933 52.7383 3.33179L47.3513 8.71875H30.5159C27.854 8.71875 25.5846 11.216 24.2894 15.57L27.075 16.3987C28.0559 13.101 29.5099 11.625 30.5159 11.625C31.4184 11.625 32.4845 12.762 33.2979 14.5924C34.3151 16.8809 34.8752 19.9556 34.8752 23.25C34.8752 30.3464 32.2932 34.875 30.5159 34.875C29.5099 34.875 28.0559 33.399 27.075 30.1013L24.2894 30.93C24.5608 31.8615 24.911 32.7682 25.336 33.6403L22.5237 36.4526L20.2195 34.1484L21.3716 32.9963L19.3164 30.9412L10.5977 39.6599L12.6528 41.7151L14.5315 39.8364L16.8357 42.1406L12.0508 46.9255C11.7783 47.1981 11.6252 47.5677 11.6252 47.9531V82.8281C11.6252 83.2135 11.7783 83.5831 12.0508 83.8557L17.8633 89.6682C18.1359 89.9407 18.5055 90.0937 18.8909 90.0938H69.7502C70.1356 90.0937 70.5053 89.9407 70.7778 89.6682L76.5903 83.8557C76.8348 83.6106 76.9837 83.2862 77.0103 82.941C80.4653 81.6223 83.4953 79.3863 85.7742 76.4738C88.0531 73.5612 89.4946 70.0824 89.9436 66.4115C90.3925 62.7407 89.832 59.017 88.3222 55.6411C86.8124 52.2651 84.4106 49.3648 81.3752 47.2523ZM81.3752 21.7969H84.2815V24.7031H81.3752V21.7969ZM34.98 11.625H55.219C56.1215 11.625 57.1876 12.762 58.0011 14.5924C59.0182 16.8809 59.5784 19.9556 59.5784 23.25C59.5784 30.3464 56.9964 34.875 55.219 34.875H34.98C36.7053 32.2673 37.7815 28.1104 37.7815 23.25C37.7815 18.3896 36.7053 14.2327 34.98 11.625ZM16.5867 37.7812L18.1643 36.2036L20.4685 38.5078L18.8909 40.0855L16.5867 37.7812ZM69.1484 87.1875H19.4927L14.5315 82.2263V48.555L26.9913 36.0954C28.0302 37.194 29.2268 37.7812 30.5159 37.7812H62.8999C64.9685 37.7812 66.8009 36.1018 68.0594 33.052C69.1498 30.4101 69.7502 26.9291 69.7502 23.25C69.7502 19.5709 69.1498 16.0899 68.0594 13.448C66.8009 10.3982 64.9685 8.71875 62.8999 8.71875H51.4616L54.3677 5.8125H73.5078L78.469 10.7737V45.5593C75.4329 44.1181 72.0871 43.4515 68.7305 43.619C65.3739 43.7866 62.1111 44.7831 59.2337 46.5195L45.1979 45.0547C44.9196 45.0257 44.6389 45.0776 44.3894 45.2042C44.1399 45.3309 43.9323 45.5268 43.7914 45.7686C43.6506 46.0104 43.5826 46.2876 43.5955 46.5671C43.6084 46.8466 43.7018 47.1164 43.8643 47.3442L50.6664 56.8741C49.5306 59.9505 49.1549 63.2558 49.5712 66.5087C49.9875 69.7615 51.1835 72.8657 53.0574 75.5569C54.9313 78.2482 57.4277 80.4469 60.3341 81.9658C63.2405 83.4848 66.4708 84.2792 69.7502 84.2812C70.57 84.281 71.3891 84.2315 72.2029 84.133L69.1484 87.1875ZM62.4512 21.7969C62.3895 20.3321 62.2124 18.8744 61.9215 17.4375H66.2535C66.5599 18.8726 66.7455 20.3308 66.8085 21.7969H62.4512ZM66.8085 24.7031C66.7455 26.1692 66.5599 27.6274 66.2535 29.0625H61.9215C62.2124 27.6256 62.3895 26.1679 62.4512 24.7031H66.8085ZM61.1096 14.5312C60.7495 13.51 60.2707 12.5346 59.6831 11.625H62.8999C63.6635 11.625 64.6284 12.7651 65.3622 14.5312H61.1096ZM61.1096 31.9688H65.3622C64.6284 33.7349 63.6635 34.875 62.8999 34.875H59.6831C60.2707 33.9654 60.7495 32.99 61.1096 31.9688ZM69.7502 81.375C66.8801 81.3733 64.0547 80.6635 61.5244 79.3086C58.9942 77.9537 56.8372 75.9956 55.2447 73.6077C53.6523 71.2199 52.6734 68.476 52.395 65.6194C52.1166 62.7628 52.5472 59.8816 53.6486 57.2312C53.7437 57.0031 53.7791 56.7545 53.7513 56.5089C53.7236 56.2633 53.6338 56.0289 53.4902 55.8277L48.1029 48.2799L59.4276 49.4618C59.7551 49.4959 60.0845 49.4177 60.3619 49.2402C62.6439 47.7826 65.234 46.8764 67.927 46.5934C70.62 46.3105 73.3419 46.6585 75.877 47.61C78.4121 48.5616 80.6909 50.0904 82.5326 52.0754C84.3744 54.0603 85.7286 56.447 86.488 59.0461C87.2474 61.6453 87.391 64.3856 86.9076 67.0499C86.4241 69.7142 85.3268 72.2294 83.7027 74.396C82.0786 76.5627 79.9722 78.3214 77.5504 79.5327C75.1286 80.7441 72.4581 81.3748 69.7502 81.375Z" fill="#324BFF"/>
<path d="M73.3418 52.4844C73.1099 52.3603 72.8487 52.3015 72.586 52.3142C72.3234 52.3269 72.069 52.4107 71.8502 52.5566L63.4976 58.125H58.125C57.7396 58.125 57.37 58.2781 57.0975 58.5506C56.825 58.8231 56.6719 59.1927 56.6719 59.5781V68.2969C56.6719 68.6823 56.825 69.0518 57.0975 69.3244C57.37 69.5969 57.7396 69.75 58.125 69.75H63.4976L71.8502 75.3184C72.0691 75.4643 72.3234 75.5481 72.5861 75.5608C72.8488 75.5735 73.11 75.5147 73.3419 75.3906C73.5738 75.2665 73.7677 75.0817 73.9028 74.8561C74.038 74.6305 74.1094 74.3724 74.1094 74.1094V53.7656C74.1094 53.5026 74.038 53.2445 73.9028 53.0189C73.7676 52.7932 73.5737 52.6085 73.3418 52.4844ZM71.2031 71.3942L64.7435 67.0878C64.5048 66.9287 64.2244 66.8438 63.9375 66.8437H59.5781V61.0312H63.9375C64.2244 61.0312 64.5048 60.9463 64.7435 60.7872L71.2031 56.4808V71.3942Z" fill="#324BFF"/>
<path d="M77.9238 56.9906L76.1074 59.2593C77.6081 60.4606 78.4688 62.1658 78.4688 63.9375C78.4688 65.7092 77.6081 67.4144 76.1074 68.6156L77.9238 70.8843C80.117 69.1286 81.375 66.5966 81.375 63.9375C81.375 61.2783 80.117 58.7463 77.9238 56.9906Z" fill="#324BFF"/>
<path d="M75.5625 14.5312H72.6562V17.4375H75.5625V14.5312Z" fill="#324BFF"/>
<path d="M75.5625 21.7969H72.6562V24.7031H75.5625V21.7969Z" fill="#324BFF"/>
<path d="M75.5625 29.0625H72.6562V31.9688H75.5625V29.0625Z" fill="#324BFF"/>
<path d="M39.2344 79.9219H36.3281V82.8281H39.2344V79.9219Z" fill="#324BFF"/>
<path d="M31.9688 79.9219H29.0625V82.8281H31.9688V79.9219Z" fill="#324BFF"/>
<path d="M24.7031 79.9219H21.7969V82.8281H24.7031V79.9219Z" fill="#324BFF"/>
</svg>
