<svg width="97" height="97" viewBox="0 0 97 97" fill="none" xmlns="http://www.w3.org/2000/svg">
<g clip-path="url(#clip0_195_888)">
<path d="M48.4948 61.7838C45.3576 61.7838 42.6481 63.6084 41.367 66.2542C40.7122 67.6063 41.87 69.1393 43.3525 68.8957C45.0259 68.6208 46.7437 68.4778 48.4948 68.4778C50.2459 68.4778 51.9637 68.6208 53.6371 68.8957C55.1194 69.1391 56.2771 67.6061 55.6226 66.2542C54.3413 63.6084 51.6318 61.7838 48.4948 61.7838Z" fill="#324BFF"/>
<path d="M53.9311 16.932C50.3542 16.2613 46.7268 16.2613 43.1495 16.932C36.5613 18.1672 30.7733 22.1531 27.2699 27.8676C23.7664 33.582 22.8396 40.5484 24.7273 46.98L27.2339 55.5211V59.3054C27.2339 71.0314 36.7739 80.5712 48.5001 80.5712C60.2263 80.5712 69.7662 71.0314 69.7662 59.3054V55.795C69.7675 55.7909 69.7692 55.7867 69.7703 55.7825L72.3537 46.9802C74.2412 40.5484 73.3146 33.5822 69.8111 27.8678C66.3075 22.1533 60.5193 18.1672 53.9311 16.932ZM65.9769 59.3054C65.9769 68.942 58.1368 76.7821 48.4999 76.7821C38.863 76.7821 31.0228 68.9421 31.0228 59.3054V50.1402C35.1533 49.494 39.1147 47.9886 42.447 45.8656C42.1202 46.3555 41.7779 46.8358 41.4202 47.3056C40.9723 47.8943 40.9079 48.6896 41.2552 49.3426C41.6024 49.9955 42.297 50.3865 43.0364 50.3445C49.3352 49.9832 55.3442 47.3642 60.1529 42.9204C62.7539 45.7877 64.7479 49.1791 65.9769 52.8329V59.3054ZM68.7179 45.9132L68.0999 48.0189C66.4655 44.6181 64.2279 41.5036 61.4994 38.8676C61.136 38.5165 60.6508 38.3256 60.1419 38.336C59.6367 38.347 59.1568 38.5594 58.8088 38.9258C55.449 42.4655 51.2956 44.889 46.8314 45.966C48.2693 43.4268 49.3668 40.6848 50.1085 37.7722C50.3438 36.8476 49.8552 35.8924 48.9678 35.5423C48.08 35.192 47.0712 35.5567 46.6118 36.3928C43.6334 41.8168 36.1867 45.9886 28.5702 46.6202L28.3627 45.9132C26.776 40.5069 27.5551 34.6515 30.4999 29.8481C33.4448 25.0447 38.3099 21.6944 43.8477 20.6562C46.9613 20.0725 50.1189 20.0725 53.2328 20.6562C58.7705 21.6944 63.6355 25.0449 66.5805 29.8481C69.5256 34.6513 70.3046 40.5067 68.7179 45.9132Z" fill="#324BFF"/>
<path d="M0.554861 36.9456C-0.184954 37.6854 -0.184954 38.885 0.554861 39.625C5.44919 44.5192 5.44919 52.4828 0.554861 57.377C-0.184954 58.1168 -0.184954 59.3164 0.554861 60.0564C0.924863 60.4264 1.40967 60.6113 1.89448 60.6113C2.37929 60.6113 2.86429 60.4264 3.23411 60.0564C9.6056 53.6847 9.6056 43.3175 3.23411 36.9458C2.49429 36.2058 1.29468 36.2058 0.554861 36.9456Z" fill="#324BFF"/>
<path d="M9.1076 28.3932C8.36778 29.1331 8.36778 30.3327 9.1076 31.0727C18.7176 40.6827 18.7176 56.3194 9.1076 65.9292C8.36778 66.669 8.36778 67.8686 9.1076 68.6086C9.47741 68.9786 9.96241 69.1636 10.4472 69.1636C10.932 69.1636 11.417 68.9786 11.7868 68.6086C22.8742 57.5213 22.8742 39.4808 11.7868 28.3932C11.0468 27.6534 9.84722 27.6534 9.1076 28.3932Z" fill="#324BFF"/>
<path d="M96.4454 39.625C97.1852 38.8852 97.1852 37.6856 96.4454 36.9456C95.7056 36.2056 94.5059 36.2057 93.7659 36.9456C87.3944 43.3172 87.3944 53.6845 93.7659 60.0562C94.1359 60.4262 94.6207 60.6111 95.1056 60.6111C95.5904 60.6111 96.0754 60.4262 96.4452 60.0562C97.185 59.3164 97.185 58.1168 96.4452 57.3768C91.551 52.4826 91.551 44.5191 96.4454 39.625Z" fill="#324BFF"/>
<path d="M87.8932 28.3932C87.1536 27.6534 85.9538 27.6534 85.214 28.3932C74.1266 39.4806 74.1266 57.5211 85.214 68.6086C85.584 68.9786 86.0688 69.1636 86.5536 69.1636C87.0384 69.1636 87.5234 68.9786 87.8932 68.6086C88.633 67.8688 88.633 66.6692 87.8932 65.9292C78.2832 56.3192 78.2832 40.6825 87.8932 31.0727C88.633 30.3327 88.633 29.1331 87.8932 28.3932Z" fill="#324BFF"/>
</g>
<defs>
<clipPath id="clip0_195_888">
<rect width="97" height="97" fill="white"/>
</clipPath>
</defs>
</svg>
