<svg width="90" height="90" viewBox="0 0 90 90" fill="none" xmlns="http://www.w3.org/2000/svg">
<path d="M45 33.75C44.5792 33.75 44.1807 33.9383 43.9135 34.2635C43.1541 35.1877 25.3125 57.0204 25.3125 67.5C25.3125 78.3557 34.1443 87.1875 45 87.1875C55.8557 87.1875 64.6875 78.3557 64.6875 67.5C64.6875 57.0204 46.8459 35.1877 46.0865 34.2635C45.8193 33.9383 45.4208 33.75 45 33.75ZM61.875 67.5C61.875 76.805 54.305 84.375 45 84.375C35.695 84.375 28.125 76.805 28.125 67.5C28.125 63.6543 31.1992 57.0299 37.0155 48.343C40.1815 43.6143 43.38 39.4573 45.0002 37.4057C46.6175 39.4536 49.8083 43.6003 52.9724 48.3245C58.7964 57.0206 61.875 63.6513 61.875 67.5Z" fill="#324BFF"/>
<path d="M33.75 67.5C33.75 66.7234 33.1204 66.0938 32.3438 66.0938C31.5671 66.0938 30.9375 66.7234 30.9375 67.5C30.9375 75.2541 37.2459 81.5625 45 81.5625C45.7766 81.5625 46.4062 80.9329 46.4062 80.1562C46.4062 79.3796 45.7766 78.75 45 78.75C38.7967 78.75 33.75 73.7033 33.75 67.5Z" fill="#324BFF"/>
<path d="M30.9375 25.3125C30.9375 22.1129 28.7193 17.4062 24.3448 11.3233C21.173 6.91277 18.0529 3.4258 17.9216 3.27955C17.6549 2.9823 17.2744 2.8125 16.875 2.8125C16.4756 2.8125 16.0951 2.9823 15.8284 3.27955C15.6971 3.4258 12.5771 6.91277 9.40518 11.3233C5.03068 17.4062 2.8125 22.1129 2.8125 25.3125C2.8125 33.0666 9.12094 39.375 16.875 39.375C24.6291 39.375 30.9375 33.0666 30.9375 25.3125ZM5.625 25.3125C5.625 20.5007 12.9744 10.9153 16.8752 6.35484C20.7759 10.9139 28.125 20.4968 28.125 25.3125C28.125 31.5158 23.0783 36.5625 16.875 36.5625C10.6717 36.5625 5.625 31.5158 5.625 25.3125Z" fill="#324BFF"/>
<path d="M18.2812 32.3438C18.2812 31.5671 17.6516 30.9375 16.875 30.9375C13.7733 30.9375 11.25 28.4142 11.25 25.3125C11.25 24.5359 10.6204 23.9062 9.84375 23.9062C9.06715 23.9062 8.4375 24.5359 8.4375 25.3125C8.4375 29.9651 12.2226 33.75 16.875 33.75C17.6516 33.75 18.2812 33.1204 18.2812 32.3438Z" fill="#324BFF"/>
<path d="M70.3125 50.625C79.6175 50.625 87.1875 43.055 87.1875 33.75C87.1875 29.9166 84.5017 24.0755 79.2047 16.389C75.3416 10.7829 71.4226 6.1657 71.3834 6.11982C71.1162 5.80588 70.7247 5.625 70.3125 5.625C69.9003 5.625 69.5088 5.80588 69.2416 6.11982C69.2024 6.1657 65.2834 10.7829 61.4203 16.389C56.1233 24.0755 53.4375 29.9166 53.4375 33.75C53.4375 43.055 61.0075 50.625 70.3125 50.625ZM70.3125 9.22799C75.0516 15.0207 84.375 27.6713 84.375 33.75C84.375 41.5041 78.0666 47.8125 70.3125 47.8125C62.5584 47.8125 56.25 41.5041 56.25 33.75C56.25 27.6713 65.5734 15.0207 70.3125 9.22799Z" fill="#324BFF"/>
<path d="M70.3125 45C76.5158 45 81.5625 39.9533 81.5625 33.75C81.5625 32.9734 80.9329 32.3438 80.1562 32.3438C79.3796 32.3438 78.75 32.9734 78.75 33.75C78.75 38.4026 74.9649 42.1875 70.3125 42.1875C69.5359 42.1875 68.9062 42.8171 68.9062 43.5938C68.9062 44.3704 69.5359 45 70.3125 45Z" fill="#324BFF"/>
<path d="M45 29.5312C49.6524 29.5312 53.4375 25.7463 53.4375 21.0938C53.4375 16.8393 46.8487 8.49551 46.0974 7.55807C45.8304 7.22514 45.4268 7.03125 45 7.03125C44.5732 7.03125 44.1696 7.22514 43.9026 7.55807C43.1513 8.49551 36.5625 16.8393 36.5625 21.0938C36.5625 25.7463 40.3476 29.5312 45 29.5312ZM45 10.7364C47.5195 14.1019 50.625 18.9536 50.625 21.0938C50.625 24.1954 48.1017 26.7188 45 26.7188C41.8983 26.7188 39.375 24.1954 39.375 21.0938C39.375 18.9536 42.4805 14.1021 45 10.7364Z" fill="#324BFF"/>
<path d="M75.9375 57.6562C75.5107 57.6562 75.1071 57.8501 74.8401 58.1831C74.0888 59.1205 67.5 67.4643 67.5 71.7188C67.5 76.3713 71.2851 80.1562 75.9375 80.1562C80.5899 80.1562 84.375 76.3713 84.375 71.7188C84.375 67.4643 77.7862 59.1205 77.0349 58.1831C76.7679 57.8501 76.3643 57.6562 75.9375 57.6562ZM75.9375 77.3438C72.8358 77.3438 70.3125 74.8204 70.3125 71.7188C70.3125 69.5786 73.418 64.7271 75.9375 61.3614C78.457 64.7269 81.5625 69.5786 81.5625 71.7188C81.5625 74.8204 79.0392 77.3438 75.9375 77.3438Z" fill="#324BFF"/>
<path d="M15.4688 43.5938C15.042 43.5938 14.6384 43.7876 14.3713 44.1206C13.6201 45.058 7.03125 53.4018 7.03125 57.6562C7.03125 62.3088 10.8163 66.0938 15.4688 66.0938C20.1212 66.0938 23.9062 62.3088 23.9062 57.6562C23.9062 53.4018 17.3174 45.058 16.5662 44.1206C16.2991 43.7876 15.8955 43.5938 15.4688 43.5938ZM15.4688 63.2812C12.3671 63.2812 9.84375 60.7579 9.84375 57.6562C9.84375 55.5161 12.9493 50.6646 15.4688 47.2989C17.9882 50.6644 21.0938 55.5161 21.0938 57.6562C21.0938 60.7579 18.5704 63.2812 15.4688 63.2812Z" fill="#324BFF"/>
</svg>
