<svg width="94" height="94" viewBox="0 0 94 94" fill="none" xmlns="http://www.w3.org/2000/svg">
<g clip-path="url(#clip0_195_708)">
<path d="M29.9482 83.8871H26.8418C25.9934 83.8871 25.3057 83.1993 25.3057 82.3509V74.6703H31.4843V82.3509C31.4843 83.1993 30.7966 83.8871 29.9482 83.8871Z" fill="white"/>
<path d="M47.3203 12.1138H50.4267C51.2751 12.1138 51.9628 12.8015 51.9628 13.6499V21.3305H45.7842V13.6499C45.7842 12.8015 46.4719 12.1138 47.3203 12.1138Z" fill="white"/>
<path d="M63.9346 12.1138H67.041C67.8894 12.1138 68.5771 12.8015 68.5771 13.6499V21.3305H62.3984V13.6499C62.3984 12.8015 63.0862 12.1138 63.9346 12.1138Z" fill="white"/>
<path d="M30.7162 23.3315H3.91504L7.46409 12.7139C7.98348 11.1604 9.43809 10.1128 11.0761 10.1128H23.5552C25.1934 10.1128 26.648 11.1604 27.1672 12.7139L30.7162 23.3315Z" fill="white"/>
<path d="M27.1667 12.7139C26.6473 11.1602 25.1927 10.1128 23.5547 10.1128H19.8945C21.5327 10.1128 22.9874 11.1604 23.5067 12.7139L27.0558 23.3315H30.7159L27.1667 12.7139Z" fill="white"/>
<path d="M76.9504 59.8889C85.6063 59.8889 92.6234 51.5688 92.6234 41.3053C92.6234 31.0419 85.6063 22.7218 76.9504 22.7218C68.2944 22.7218 61.2773 31.0419 61.2773 41.3053C61.2773 51.5688 68.2944 59.8889 76.9504 59.8889Z" fill="white"/>
<path d="M87.4885 55.0614C87.4587 54.7212 87.4136 54.3788 87.3471 54.0348L82.2713 27.7487C81.9258 25.9592 81.0765 24.3462 79.8677 23.0443C78.9224 22.8332 77.9475 22.7216 76.9504 22.7216C68.2943 22.7216 61.2773 31.0417 61.2773 41.3051C61.2773 51.5685 68.2943 59.8886 76.9504 59.8886C81.0078 59.889 84.7052 58.061 87.4885 55.0614Z" fill="white"/>
<path d="M3.64941 64.0702L10.339 76.0543C10.5002 76.3429 10.5847 76.6679 10.5847 76.9985V81.1911C10.5847 82.4815 11.8228 83.4113 13.0621 83.0512L39.0243 75.5103C39.5464 75.3586 40.0873 75.2817 40.6311 75.2817H70.7966C73.9781 75.2817 76.5571 72.7026 76.5571 69.5213V57.6659L7.31046 54.908L3.64941 64.0702Z" fill="white"/>
<path d="M72.9079 57.6659V69.5213C72.9079 72.7028 70.3288 75.2817 67.1475 75.2817H70.7969C73.9784 75.2817 76.5574 72.7026 76.5574 69.5213V57.6659H72.9079Z" fill="white"/>
<path d="M79.2205 27.7489C78.6516 24.8026 76.7233 22.3291 74.0593 20.9479C71.9618 19.8605 70.7471 18.1874 67.0099 18.1874C61.4729 18.1874 61.4729 21.8593 55.9359 21.8593C50.3987 21.8593 50.3987 18.1874 44.8617 18.1874C39.3243 18.1874 39.3243 21.8593 33.7869 21.8593C28.2496 21.8593 28.2496 18.1874 22.7122 18.1874H3.64948C2.39443 18.1874 1.37695 19.2049 1.37695 20.4599V63.45C1.37695 64.7051 2.39443 65.7226 3.64948 65.7226H22.7122V65.7264C29.1675 65.7264 29.1675 69.3983 35.6231 69.3983C42.0784 69.3983 42.0784 65.7264 48.5339 65.7264C54.9891 65.7264 54.9891 69.3983 61.4441 69.3983C67.899 69.3983 67.899 65.7264 74.3538 65.7264C74.4184 65.7264 74.4823 65.7268 74.5455 65.7275C80.7627 65.7989 85.4752 60.1398 84.2963 54.0348L79.2205 27.7489Z" fill="white"/>
<path d="M84.296 54.035L79.2202 27.7489C78.6512 24.8026 76.7229 22.3291 74.059 20.9479C71.9614 19.8605 70.7468 18.1874 67.0096 18.1874C66.3376 18.1874 65.7483 18.2423 65.2197 18.3374C67.6307 18.771 68.7579 20.056 70.4782 20.9479C73.1421 22.3291 75.0704 24.8024 75.6394 27.7489L80.7152 54.035C81.8941 60.1398 77.1816 65.7991 70.9643 65.7277C70.901 65.727 70.8371 65.7266 70.7727 65.7266C64.9786 65.7266 64.3825 68.6834 59.6533 69.2892C60.1927 69.3583 60.783 69.3985 61.4437 69.3985C67.8987 69.3985 67.8987 65.7266 74.3535 65.7266C74.4181 65.7266 74.4818 65.727 74.5452 65.7277C80.7624 65.7989 85.4749 60.1398 84.296 54.035Z" fill="white"/>
<path d="M61.4439 63.8905C59.6731 63.8905 59.0586 63.541 57.712 62.775C55.8153 61.6962 53.218 60.2187 48.5336 60.2187C43.849 60.2187 41.2517 61.696 39.3552 62.7748C38.0083 63.541 37.3936 63.8905 35.6227 63.8905C33.8518 63.8905 33.2373 63.541 31.8906 62.775C30.9152 62.2202 29.7545 60.7292 28.2198 60.2187L22.712 60.2148H6.88477V23.6954H22.712C23.8206 23.6954 24.0864 23.8717 25.2056 24.6138C26.859 25.7104 29.3579 27.3673 33.7868 27.3673C38.2156 27.3671 40.7143 25.7104 42.3679 24.614C43.4871 23.8717 43.753 23.6954 44.8615 23.6954C45.9699 23.6954 46.2355 23.8717 47.3545 24.6138C49.0082 25.7104 51.5069 27.3673 55.9357 27.3673C60.3643 27.3671 62.8631 25.7102 64.5165 24.6138C65.6355 23.8717 65.9013 23.6954 67.0095 23.6954C68.1175 23.6954 68.3832 23.8717 69.5018 24.6134C70.0434 24.9727 70.7176 25.4197 71.5243 25.8378C72.7369 26.4666 73.571 27.5439 73.8124 28.7936L78.888 55.0793C79.2246 56.822 78.4617 58.0675 77.9769 58.6548C77.4942 59.2397 76.4215 60.2207 74.6615 60.2207C74.6615 60.2207 74.4388 60.2188 74.3533 60.2188C69.6687 60.2188 67.0714 61.6964 65.1749 62.7752C63.8288 63.541 63.2143 63.8905 61.4439 63.8905Z" fill="white"/>
<path d="M78.8883 55.0791L73.8127 28.7934C73.5714 27.5437 72.7374 26.4664 71.5245 25.8375C70.7178 25.4195 70.0439 24.9725 69.5021 24.6132C68.3834 23.8714 68.1178 23.6952 67.0098 23.6952C66.108 23.6952 65.7637 23.812 65.0641 24.2553C65.2241 24.3567 65.4026 24.4751 65.6108 24.6132C66.1524 24.9725 66.8266 25.4195 67.6333 25.8375C68.8459 26.4664 69.68 27.5437 69.9214 28.7934L74.997 55.0791C75.3336 56.8217 74.5707 58.0672 74.0859 58.6546C73.6032 59.2395 72.5304 60.2204 70.7705 60.2204C70.7705 60.2204 70.5478 60.2186 70.4623 60.2186C65.7777 60.2186 63.1804 61.6962 61.2839 62.775C60.5783 63.1763 60.0732 63.4621 59.498 63.6446C60.0207 63.8102 60.6009 63.8907 61.4438 63.8907C63.2143 63.8907 63.8287 63.5411 65.1751 62.7751C67.0717 61.6963 69.6691 60.2188 74.3535 60.2188C74.4391 60.2188 74.6618 60.2206 74.6618 60.2206C76.4217 60.2206 77.4945 59.2395 77.9771 58.6547C78.462 58.0674 79.2248 56.8219 78.8883 55.0791Z" fill="white"/>
<path d="M22.1466 54.4584H19.3978C18.7503 54.4584 18.2256 53.9335 18.2256 53.2861V36.6312C18.2256 35.9837 18.7505 35.459 19.3978 35.459H22.1466C22.7941 35.459 23.3188 35.9839 23.3188 36.6312V53.2861C23.319 53.9335 22.7941 54.4584 22.1466 54.4584Z" fill="white"/>
<path d="M94 41.3054C94 37.4688 93.0684 33.7419 91.306 30.5277C90.9404 29.8607 90.1032 29.6167 89.4366 29.9822C88.7696 30.3478 88.5256 31.1848 88.8912 31.8516C90.4317 34.6613 91.2459 37.9302 91.2459 41.3054C91.2459 46.6432 89.21 51.5844 85.7996 54.8158C85.7655 54.4683 85.7152 54.1207 85.6482 53.7737L80.5723 27.4878C80.3585 26.3805 79.9786 25.3285 79.4532 24.3586C81.8109 24.8559 84.0116 26.0605 85.9186 27.9135C86.1861 28.1735 86.5323 28.3029 86.8781 28.3029C87.2372 28.3029 87.5957 28.1634 87.8658 27.8856C88.3958 27.3403 88.3831 26.4685 87.8379 25.9386C84.8167 23.0028 80.9917 21.3741 77.0562 21.3453C76.351 20.72 75.5593 20.1747 74.6929 19.7254C74.2149 19.4774 73.7741 19.1853 73.3074 18.8758C72.3817 18.2618 71.3774 17.5959 69.9544 17.1909V13.6501C69.9544 12.0439 68.6476 10.7371 67.0413 10.7371H63.9349C62.3287 10.7371 61.0219 12.0439 61.0219 13.6501V18.6711C60.9172 18.7397 60.814 18.8082 60.7118 18.8759C59.4119 19.7379 58.2894 20.4824 55.936 20.4824C54.8573 20.4824 54.0372 20.326 53.3401 20.0737V13.6501C53.3401 12.0439 52.0333 10.7371 50.427 10.7371H47.3206C45.7144 10.7371 44.4076 12.0439 44.4076 13.6501V16.8184C41.5174 16.9172 39.9521 17.955 38.5634 18.8759C37.2634 19.7381 36.1407 20.4826 33.7869 20.4826C32.6414 20.4826 31.7877 20.3063 31.0631 20.026L28.4731 12.2778C27.765 10.1595 25.7884 8.73608 23.555 8.73608H18.0371C17.2765 8.73608 16.6602 9.35241 16.6602 10.113C16.6602 10.8737 17.2765 11.49 18.0371 11.49H23.555C24.6024 11.49 25.5292 12.1575 25.8613 13.151L27.4557 17.9207C26.2937 17.304 24.8466 16.8109 22.7123 16.8109H7.54642L8.76989 13.151C9.10201 12.1575 10.0286 11.49 11.0762 11.49H12.7131C13.4737 11.49 14.0901 10.8737 14.0901 10.113C14.0901 9.35241 13.4737 8.73608 12.7131 8.73608H11.0762C8.84278 8.73608 6.86621 10.1595 6.15809 12.2778L4.64271 16.8107H3.64965C1.6371 16.8105 0 18.4476 0 20.46V63.45C0 65.4624 1.6371 67.0995 3.64947 67.0995H3.76366L9.13708 76.7257C9.18334 76.8088 9.20794 76.9032 9.20794 76.9985V81.191C9.20794 82.2434 9.69061 83.2093 10.5322 83.8412C11.3756 84.4762 12.4471 84.6655 13.4464 84.3734L23.9288 81.3289V82.351C23.9288 83.9572 25.2356 85.264 26.8419 85.264H29.9483C31.5546 85.264 32.8612 83.9572 32.8612 82.351V78.7345L39.4089 76.8327C39.806 76.7172 40.2174 76.6588 40.6314 76.6588H48.0974C48.8581 76.6588 49.4744 76.0425 49.4744 75.2819C49.4744 74.5213 48.8581 73.9049 48.0974 73.9049H40.6314C39.9573 73.9049 39.2875 74.0004 38.6405 74.1882L12.678 81.729C12.4445 81.7962 12.2692 81.702 12.1855 81.639C12.1019 81.5762 11.9617 81.4347 11.9617 81.1912V76.9987C11.9617 76.4343 11.8163 75.8758 11.5414 75.3834L6.91743 67.0997C6.94938 67.0997 22.6815 67.1035 22.7122 67.1035C25.5757 67.1035 26.9245 67.871 28.4867 68.7596C30.1481 69.7043 32.031 70.7754 35.6228 70.7754C39.2146 70.7754 41.0976 69.7043 42.7589 68.7596C44.3211 67.871 45.67 67.1035 48.5336 67.1035C51.397 67.1035 52.7458 67.871 54.3078 68.7594C55.969 69.7043 57.8519 70.7754 61.4438 70.7754C65.0352 70.7754 66.9181 69.7043 68.5793 68.7596C70.1413 67.871 71.4902 67.1035 74.3535 67.1035C74.5516 67.1035 74.7866 67.1114 75.18 67.0933V69.5215C75.18 71.9387 73.2136 73.9051 70.7965 73.9051H53.4213C52.6606 73.9051 52.0443 74.5214 52.0443 75.2821C52.0443 76.0427 52.6606 76.659 53.4213 76.659H70.7965C74.7322 76.659 77.9339 73.4572 77.9339 69.5215V66.6187C79.9856 65.9928 81.8307 64.7809 83.2453 63.0873C84.3626 61.749 85.1368 60.1991 85.5371 58.5565C90.7717 54.9844 94 48.435 94 41.3054ZM30.1071 82.351C30.1071 82.4389 30.0357 82.5101 29.9481 82.5101H26.8417C26.7538 82.5101 26.6825 82.4387 26.6825 82.351V80.529L30.1071 79.5343V82.351ZM63.7758 13.6501C63.7758 13.5622 63.8472 13.491 63.9349 13.491H67.0413C67.1293 13.491 67.2005 13.5624 67.2005 13.6501V16.812C67.1375 16.8111 67.074 16.8105 67.0098 16.8105C65.7057 16.8105 64.6583 16.9947 63.7758 17.2785V13.6501ZM47.3206 13.4908H50.427C50.515 13.4908 50.5862 13.5622 50.5862 13.65V18.4999C49.6705 17.9134 48.624 17.3367 47.1615 17.0323V13.6501C47.1615 13.5622 47.2329 13.4908 47.3206 13.4908ZM81.1316 61.3218C79.4864 63.2918 77.2407 64.3495 74.3537 64.3495C70.762 64.3495 68.8791 65.4205 67.2179 66.3655C65.6559 67.2539 64.3071 68.0213 61.4439 68.0213C58.5804 68.0213 57.2316 67.2539 55.6696 66.3653C54.0084 65.4205 52.1255 64.3495 48.5338 64.3495C44.942 64.3495 43.0589 65.4205 41.3976 66.3653C39.8354 67.2539 38.4865 68.0213 35.623 68.0213C32.7595 68.0213 31.4106 67.2539 29.8484 66.3653C28.2036 65.4297 26.3418 64.3708 22.8192 64.3496C22.7153 64.3417 23.5993 64.3471 3.64965 64.3456C3.15597 64.3456 2.75408 63.9439 2.75408 63.45V20.46C2.75408 19.9663 3.15579 19.5644 3.64965 19.5644H22.7123C25.066 19.5644 26.1889 20.3089 27.4889 21.171C28.9486 22.139 30.6035 23.2363 33.7872 23.2363C36.9711 23.2363 38.6257 22.139 40.0856 21.171C41.3856 20.3089 42.5083 19.5644 44.8621 19.5644C47.0142 19.5644 48.0782 20.1363 49.6381 21.1709C51.0981 22.139 52.7528 23.2363 55.9365 23.2363C59.12 23.2363 60.7746 22.139 62.2343 21.171C63.748 20.1672 64.7974 19.5644 67.0105 19.5644C69.3636 19.5644 70.4863 20.3089 71.7861 21.1709C72.2928 21.5068 72.8166 21.8544 73.4262 22.1702C75.7664 23.3835 77.3868 25.5117 77.8691 28.0099L82.9449 54.2959C83.4254 56.7876 82.7767 59.3517 81.1316 61.3218Z" fill="#324BFF"/>
<path d="M75.1646 28.5325C74.8429 26.8669 73.747 25.4391 72.158 24.6153C71.4158 24.2303 70.7767 23.8066 70.2628 23.4655C69.0748 22.6778 68.5326 22.3184 67.0097 22.3184C65.4862 22.3184 64.9439 22.678 63.7555 23.4662C62.1491 24.5314 59.9492 25.99 55.9357 25.9902C51.922 25.9902 49.7218 24.5314 48.1153 23.466C46.9271 22.678 46.3848 22.3184 44.8613 22.3184C43.3375 22.3184 42.795 22.678 41.6066 23.4664C40.0001 24.5314 37.8001 25.99 33.7864 25.9902C29.7723 25.9902 27.5723 24.5314 25.966 23.466C24.7776 22.678 24.2351 22.3184 22.7115 22.3184H6.88477C6.12414 22.3184 5.50781 22.9347 5.50781 23.6953V60.2147C5.50781 60.9753 6.12414 61.5916 6.88477 61.5916H22.7111L27.9714 61.5955C28.607 61.8623 29.218 62.3912 29.8109 62.9041C30.2825 63.3125 30.7281 63.6978 31.21 63.9719C32.6303 64.7797 33.4877 65.2675 35.6227 65.2675C37.7579 65.2675 38.6155 64.7799 40.0359 63.9717C41.897 62.913 44.2132 61.5957 48.5336 61.5957C52.8535 61.5957 55.1697 62.9131 57.0312 63.9719C58.4515 64.7797 59.3089 65.2675 61.4437 65.2675C63.5783 65.2675 64.4353 64.7799 65.856 63.9717C68.7588 62.3205 70.7574 61.5973 74.6617 61.5973C76.9866 61.5973 78.4021 60.3026 79.0388 59.5312C79.6779 58.7569 80.6838 57.1154 80.2402 54.8179L75.1646 28.5325ZM76.9151 57.7782C76.5138 58.2642 75.7974 58.8436 74.6729 58.8436C74.6729 58.8436 74.4421 58.8418 74.3536 58.8418C69.305 58.8418 66.4101 60.4884 64.4939 61.5784C63.1981 62.3155 62.8498 62.5136 61.4439 62.5136C60.0375 62.5136 59.6891 62.3155 58.3925 61.578C56.4769 60.4882 53.5822 58.8418 48.5337 58.8418C43.4849 58.8418 40.59 60.4884 38.6744 61.578C37.378 62.3155 37.0296 62.5136 35.6229 62.5136C34.2164 62.5136 33.8679 62.3155 32.5716 61.578C32.3255 61.4381 31.9795 61.1387 31.6132 60.8216C30.8393 60.1521 29.8764 59.3186 28.6548 58.9123C28.5147 58.8656 28.3684 58.8419 28.2211 58.8418L22.7122 58.8379H8.26172V25.0723H22.712C23.4056 25.0723 23.4056 25.0723 24.4446 25.7611C26.1269 26.8768 28.9425 28.7441 33.7869 28.7441C38.6307 28.744 41.4465 26.877 43.1293 25.7613C44.1683 25.0723 44.1683 25.0723 44.8619 25.0723C45.5551 25.0723 45.5551 25.0723 46.5941 25.7613C48.2763 26.8768 51.0923 28.7441 55.9362 28.7441C60.7798 28.744 63.5956 26.8768 65.2782 25.7611C66.3168 25.0723 66.3168 25.0723 67.0103 25.0723C67.7031 25.0723 67.7031 25.0723 68.7415 25.7607C69.31 26.1378 70.0173 26.6071 70.8912 27.06C71.7281 27.4939 72.3001 28.2207 72.4612 29.0544L77.5368 55.3401C77.7543 56.4692 77.319 57.2891 76.9151 57.7782Z" fill="#324BFF"/>
<path d="M15.375 15.6132H19.2558C20.0164 15.6132 20.6328 14.9968 20.6328 14.2362C20.6328 13.4756 20.0164 12.8593 19.2558 12.8593H15.375C14.6144 12.8593 13.998 13.4756 13.998 14.2362C13.998 14.9968 14.6146 15.6132 15.375 15.6132Z" fill="#324BFF"/>
<path d="M65.7643 28.746H64.4707C63.7101 28.746 63.0938 29.3623 63.0938 30.1229C63.0938 30.8836 63.7101 31.4999 64.4707 31.4999H65.7643C66.5249 31.4999 67.1413 30.8836 67.1413 30.1229C67.1413 29.3623 66.5249 28.746 65.7643 28.746Z" fill="#324BFF"/>
<path d="M70.528 54.6984H69.2344C68.4737 54.6984 67.8574 55.3147 67.8574 56.0753C67.8574 56.8359 68.4737 57.4523 69.2344 57.4523H70.528C71.2886 57.4523 71.9049 56.8359 71.9049 56.0753C71.9049 55.3147 71.2886 54.6984 70.528 54.6984Z" fill="#324BFF"/>
<path d="M11.7422 27.8566C10.9816 27.8566 10.3652 28.4729 10.3652 29.2335V30.5271C10.3652 31.2878 10.9816 31.9041 11.7422 31.9041C12.5028 31.9041 13.1191 31.2878 13.1191 30.5271V29.2335C13.1191 28.4731 12.5028 27.8566 11.7422 27.8566Z" fill="#324BFF"/>
<path d="M11.7422 35.1776C10.9816 35.1776 10.3652 35.7939 10.3652 36.5546V37.8482C10.3652 38.6088 10.9816 39.2251 11.7422 39.2251C12.5028 39.2251 13.1191 38.6088 13.1191 37.8482V36.5546C13.1191 35.7941 12.5028 35.1776 11.7422 35.1776Z" fill="#324BFF"/>
<path d="M11.7422 42.4987C10.9816 42.4987 10.3652 43.115 10.3652 43.8756V45.169C10.3652 45.9297 10.9816 46.546 11.7422 46.546C12.5028 46.546 13.1191 45.9297 13.1191 45.169V43.8756C13.1191 43.1152 12.5028 42.4987 11.7422 42.4987Z" fill="#324BFF"/>
<path d="M22.1458 34.082H19.3969C17.9913 34.082 16.8477 35.2256 16.8477 36.6312V53.2861C16.8477 54.6917 17.9913 55.8355 19.3969 55.8355H22.1458C23.5514 55.8355 24.6952 54.6919 24.6952 53.2861V36.6312C24.6952 35.2255 23.5514 34.082 22.1458 34.082ZM21.9413 53.0814H19.6017V36.8359H21.9413V53.0814Z" fill="#324BFF"/>
<path d="M17.3154 73.9049C16.5548 73.9049 15.9385 74.5212 15.9385 75.2819C15.9385 76.0425 16.5548 76.6588 17.3154 76.6588H19.8949C20.6556 76.6588 21.2719 76.0425 21.2719 75.2819C21.2719 74.5212 20.6556 73.9049 19.8949 73.9049H17.3154Z" fill="#324BFF"/>
</g>
<defs>
<clipPath id="clip0_195_708">
<rect width="94" height="94" fill="white"/>
</clipPath>
</defs>
</svg>
