<svg width="42" height="42" viewBox="0 0 42 42" fill="none" xmlns="http://www.w3.org/2000/svg">
<circle cx="21" cy="21" r="21" fill="#324BFF"/>
<path d="M12.99 23.6599L11.47 22.1399C10.85 21.5199 10.85 20.4999 11.47 19.8799L12.99 18.3599C13.25 18.0999 13.46 17.5899 13.46 17.2299V15.0799C13.46 14.1999 14.18 13.4799 15.06 13.4799H17.21C17.57 13.4799 18.08 13.2699 18.34 13.0099L19.86 11.4899C20.48 10.8699 21.5 10.8699 22.12 11.4899L23.64 13.0099C23.9 13.2699 24.41 13.4799 24.77 13.4799H26.92C27.8 13.4799 28.52 14.1999 28.52 15.0799V17.2299C28.52 17.5899 28.73 18.0999 28.99 18.3599L30.51 19.8799C31.13 20.4999 31.13 21.5199 30.51 22.1399L28.99 23.6599C28.73 23.9199 28.52 24.43 28.52 24.79V26.9399C28.52 27.8199 27.8 28.54 26.92 28.54H24.77C24.41 28.54 23.9 28.7499 23.64 29.0099L22.12 30.5299C21.5 31.1499 20.48 31.1499 19.86 30.5299L18.34 29.0099C18.08 28.7499 17.57 28.54 17.21 28.54H15.06C14.18 28.54 13.46 27.8199 13.46 26.9399V24.79C13.46 24.42 13.25 23.9099 12.99 23.6599Z" stroke="white" stroke-width="1.5" stroke-linecap="round" stroke-linejoin="round"/>
<path opacity="0.4" d="M18 24L24 18" stroke="white" stroke-width="1.5" stroke-linecap="round" stroke-linejoin="round"/>
<path opacity="0.4" d="M23.4945 23.5H23.5035" stroke="white" stroke-width="2" stroke-linecap="round" stroke-linejoin="round"/>
<path opacity="0.4" d="M18.4945 18.5H18.5035" stroke="white" stroke-width="2" stroke-linecap="round" stroke-linejoin="round"/>
</svg>
