<svg width="507" height="98" viewBox="0 0 507 98" fill="none" xmlns="http://www.w3.org/2000/svg">
<path d="M30.5999 45.2534V39.5533H26.5999C22.3999 39.5533 18.6999 39.1534 15.4999 38.4534C12.2999 37.7534 9.59996 36.6534 7.39996 35.1534C5.19996 33.7534 3.59996 31.9533 2.39996 29.8533C1.29996 27.7533 0.699951 25.4534 0.699951 22.7534C0.699951 20.1534 1.29996 17.7534 2.39996 15.7534C3.49996 13.6534 5.19996 11.8534 7.39996 10.4534C9.59996 9.05337 12.2999 7.95338 15.4999 7.15338C18.6999 6.35338 22.3999 6.05334 26.4999 6.05334H30.4999V0.953369H41.2999V6.05334H45.7C49.7999 6.05334 53.5 6.45338 56.7 7.15338C59.9 7.95338 62.5999 9.05337 64.7999 10.4534C66.9999 11.8534 68.5999 13.6534 69.7999 15.7534C70.8999 17.8534 71.4999 20.1534 71.4999 22.7534C71.4999 25.3534 70.8999 27.7533 69.7999 29.8533C68.6999 31.9533 67 33.7534 64.9 35.1534C62.7 36.5534 59.9999 37.6534 56.7999 38.4534C53.5999 39.1534 49.8999 39.5533 45.7999 39.5533H41.4V45.2534H30.5999ZM11.2 22.8533C11.2 24.2533 11.4999 25.5534 12.0999 26.6534C12.6999 27.7534 13.5999 28.6534 14.7999 29.4534C15.9999 30.2534 17.5999 30.7534 19.4999 31.1534C21.3999 31.5534 23.5999 31.7534 26.2999 31.7534H30.9V13.7534H26.2999C23.6999 13.7534 21.3999 13.9533 19.4999 14.3533C17.5999 14.7533 16.0999 15.3533 14.7999 16.0533C13.5999 16.8533 12.6999 17.7533 12.0999 18.8533C11.4999 20.0533 11.2 21.3533 11.2 22.8533ZM61.0999 22.8533C61.0999 21.3533 60.7999 20.0534 60.2 18.9534C59.6 17.8534 58.6999 16.9534 57.4999 16.1534C56.2999 15.3534 54.6999 14.8534 52.7999 14.4534C50.8999 14.0534 48.6999 13.8533 45.9999 13.8533H41.0999V31.8533H45.9999C48.5999 31.8533 50.8999 31.6534 52.7999 31.2534C54.6999 30.8534 56.1999 30.2533 57.4999 29.5533C58.6999 28.7533 59.6 27.8534 60.2 26.7534C60.9 25.5534 61.0999 24.2533 61.0999 22.8533Z" fill="white"/>
<path d="M125.9 43.5532L120.3 35.0532H89.5L83.9 43.5532H72L99.5 2.55322H110.5L138.2 43.5532H125.9ZM115.3 27.2532L104.9 11.4532L94.6 27.2532H115.3Z" fill="white"/>
<path d="M145.4 43.5532V2.55322H181C183.8 2.55322 186.3 2.85322 188.5 3.55322C190.7 4.25322 192.6 5.25322 194.1 6.55322C195.6 7.85322 196.8 9.45323 197.6 11.2532C198.4 13.0532 198.8 15.1532 198.8 17.5532C198.8 20.5532 198.1 23.2532 196.7 25.4532C195.3 27.6532 193.2 29.4532 190.5 30.5532C187.8 31.7532 184.6 32.3532 180.8 32.3532H156.1V43.4532H145.4V43.5532ZM156.1 10.7532V24.1533H179.1C181.1 24.1533 182.7 23.9532 184 23.4532C185.3 22.9532 186.3 22.2532 186.9 21.2532C187.5 20.2532 187.9 19.0532 187.9 17.5532C187.9 16.0532 187.6 14.8532 186.9 13.8532C186.3 12.8532 185.3 12.0532 184 11.5532C182.7 11.0532 181.1 10.7532 179.1 10.7532H156.1Z" fill="white"/>
<path d="M208.7 43.5532V2.55322H248.2C250.5 2.55322 252.6 2.75323 254.4 3.25323C256.2 3.75323 257.8 4.45323 259.1 5.25323C260.4 6.15323 261.4 7.25322 262.1 8.55322C262.8 9.85322 263.1 11.3532 263.1 12.9532C263.1 14.0532 262.9 15.1532 262.5 16.2532C262.1 17.3532 261.5 18.2533 260.7 19.1533C259.9 20.0533 258.9 20.7532 257.7 21.4532C257 21.7532 256.3 22.0532 255.6 22.3532C257.2 22.7532 258.5 23.1532 259.7 23.7532C261.5 24.6532 262.8 25.8532 263.7 27.3532C264.6 28.8532 265 30.4532 265 32.3532C265 34.6532 264.4 36.6532 263.2 38.3532C262 40.0532 260.2 41.3533 257.9 42.1533C255.6 43.0533 252.8 43.4532 249.5 43.4532H208.7V43.5532ZM219.2 9.85321V19.2532H246.2C247.2 19.2532 248 19.1532 248.8 18.9532C249.6 18.7532 250.2 18.4532 250.7 18.0532C251.2 17.6532 251.6 17.1532 251.9 16.5532C252.2 15.9532 252.3 15.2532 252.3 14.4532C252.3 13.4532 252.1 12.5532 251.6 11.9532C251.1 11.2532 250.4 10.7532 249.5 10.3532C248.6 9.95321 247.4 9.85321 246 9.85321H219.2ZM219.2 26.4532V36.2532H247.1C248.7 36.2532 250 36.0532 251 35.7532C252 35.3532 252.8 34.8533 253.3 34.1533C253.8 33.4533 254 32.5532 254 31.4532C254 30.3532 253.7 29.3533 253.2 28.6533C252.7 27.9533 251.9 27.3532 250.9 27.0532C249.9 26.6532 248.6 26.4532 247.1 26.4532H219.2Z" fill="white"/>
<path d="M322.5 43.5532L316.9 35.0532H286.1L280.5 43.5532H268.6L296.1 2.55322H307.1L334.8 43.5532H322.5ZM311.9 27.2532L301.5 11.4532L291.1 27.2532H311.9Z" fill="white"/>
<path d="M350.1 43.5533V10.8533H327.3V2.65332H383.6V10.8533H360.7V43.5533H350.1Z" fill="white"/>
<path d="M392.3 43.5532V2.55322H442.6V10.2532H402.6V18.7532H438.6V26.4532H402.6V35.8532H443V43.5532H392.3Z" fill="white"/>
<path d="M453.5 43.5532V2.55322H489.1C491.9 2.55322 494.4 2.85322 496.6 3.55322C498.8 4.25322 500.7 5.25322 502.2 6.55322C503.7 7.85322 504.9 9.45323 505.7 11.2532C506.5 13.0532 506.9 15.1532 506.9 17.5532C506.9 20.5532 506.2 23.2532 504.8 25.4532C503.4 27.6532 501.3 29.4532 498.6 30.5532C495.9 31.7532 492.7 32.3532 488.9 32.3532H464.2V43.4532H453.5V43.5532ZM464.2 10.7532V24.1533H487.2C489.2 24.1533 490.8 23.9532 492.1 23.4532C493.4 22.9532 494.4 22.2532 495 21.2532C495.6 20.2532 496 19.0532 496 17.5532C496 16.0532 495.7 14.8532 495 13.8532C494.4 12.8532 493.4 12.0532 492.1 11.5532C490.8 11.0532 489.2 10.7532 487.2 10.7532H464.2Z" fill="white"/>
<path d="M443 97.6534V78.7534H447.9V86.0534H464.8V78.7534H469.7V97.6534H464.8V89.8534H447.9V97.6534H443Z" fill="white"/>
<path d="M476.1 97.6534V78.7534H481V86.0534H497.9V78.7534H502.8V97.6534H497.9V89.8534H481V97.6534H476.1Z" fill="white"/>
<path d="M427.4 85.4534H1.2998V90.9534H427.4V85.4534Z" fill="white"/>
</svg>
