<svg width="1298" height="1290" viewBox="0 0 1298 1290" fill="none" xmlns="http://www.w3.org/2000/svg">
<path d="M1297.66 616.719C1188.01 616.719 1078.36 616.719 968.711 616.719L842.423 479.087C815.956 449.595 773.608 440.521 736.553 455.645C605.728 509.336 474.903 563.784 344.834 617.475C229.889 617.475 115.701 617.475 0.75603 616.719C0.75603 625.037 0 632.599 0 640.917C0 732.419 18.9054 818.628 52.935 897.274C169.392 897.274 285.093 897.274 401.55 897.274L809.149 728.638C815.955 725.613 824.274 724.101 831.836 724.101C849.985 724.101 865.866 731.663 877.209 743.762C924.094 794.429 970.979 845.852 1017.86 896.518C1093.49 896.518 1169.11 896.518 1244.73 896.518C1278.76 817.872 1297.66 730.907 1297.66 640.161C1298.42 632.599 1297.66 625.037 1297.66 616.719Z" fill="#0445AE"/>
<path d="M1093.49 168.283C1009.55 168.283 926.362 168.283 842.422 168.283C800.074 122.154 758.482 76.0247 716.134 30.6519C689.667 1.15949 647.319 -7.9149 610.264 7.20939C480.195 60.9006 350.126 114.592 220.057 168.283C215.52 168.283 210.227 168.283 205.69 168.283C124.775 243.904 63.5214 340.7 29.4917 448.838C111.163 448.838 193.59 448.838 275.261 448.838L682.861 280.203C689.667 277.178 697.229 275.666 705.547 275.666C723.696 275.666 739.577 283.227 750.92 295.327C797.805 345.993 844.691 397.416 890.82 448.082C1016.35 448.082 1142.64 448.082 1268.17 448.082C1235.65 340.7 1174.4 244.661 1093.49 168.283Z" fill="#0445AE"/>
<path d="M1139.62 1065.91C1124.49 1065.91 1110.12 1065.91 1095 1065.91C1053.41 1019.78 1011.06 974.407 969.468 928.278C943.001 898.786 900.653 889.711 863.598 904.836C733.529 958.527 603.461 1012.22 474.148 1065.91H160.319C279.045 1202.78 454.486 1289.75 650.346 1289.75C656.395 1289.75 661.689 1289.75 667.739 1288.99C752.435 1254.21 836.374 1219.42 921.07 1184.63C921.07 1184.63 921.071 1184.63 921.827 1184.63C927.12 1182.37 932.414 1180.1 937.707 1177.83C943.757 1176.32 950.563 1174.8 958.125 1174.8C967.956 1174.8 974.762 1177.07 979.299 1177.83C986.861 1180.1 993.667 1183.88 998.96 1187.66C1051.14 1153.63 1098.02 1112.79 1139.62 1065.91Z" fill="#0445AE"/>
</svg>
