<svg width="724" height="172" viewBox="0 0 724 172" fill="none" xmlns="http://www.w3.org/2000/svg">
<path d="M247.6 81.9999V76.2999H243.6C239.4 76.2999 235.7 75.9 232.5 75.2C229.3 74.5 226.6 73.4 224.4 71.9C222.2 70.5 220.6 68.6999 219.4 66.5999C218.3 64.4999 217.7 62.1999 217.7 59.4999C217.7 56.8999 218.3 54.4999 219.4 52.4999C220.5 50.3999 222.2 48.6 224.4 47.2C226.6 45.8 229.3 44.7 232.5 43.9C235.7 43.1 239.4 42.7999 243.5 42.7999H247.5V37.7H258.3V42.7999H262.7C266.8 42.7999 270.5 43.2 273.7 43.9C276.9 44.7 279.6 45.8 281.8 47.2C284 48.6 285.6 50.3999 286.8 52.4999C287.9 54.5999 288.5 56.8999 288.5 59.4999C288.5 62.0999 287.9 64.4999 286.8 66.5999C285.7 68.6999 284 70.5 281.9 71.9C279.7 73.3 277 74.4 273.8 75.2C270.6 75.9 266.9 76.2999 262.8 76.2999H258.4V81.9999H247.6ZM228.2 59.5999C228.2 60.9999 228.5 62.3 229.1 63.4C229.7 64.5 230.6 65.4 231.8 66.2C233 67 234.6 67.5 236.5 67.9C238.4 68.3 240.6 68.4999 243.3 68.4999H247.9V50.4999H243.3C240.7 50.4999 238.4 50.6999 236.5 51.0999C234.6 51.4999 233.1 52.0999 231.8 52.7999C230.6 53.5999 229.7 54.4999 229.1 55.5999C228.5 56.7999 228.2 58.0999 228.2 59.5999ZM278.1 59.5999C278.1 58.0999 277.8 56.8 277.2 55.7C276.6 54.6 275.7 53.7 274.5 52.9C273.3 52.1 271.7 51.6 269.8 51.2C267.9 50.8 265.7 50.5999 263 50.5999H258.1V68.5999H263C265.6 68.5999 267.9 68.3999 269.8 67.9999C271.7 67.5999 273.2 66.9999 274.5 66.2999C275.7 65.4999 276.6 64.5999 277.2 63.4999C277.9 62.2999 278.1 60.9999 278.1 59.5999Z" fill="white"/>
<path d="M342.9 80.2998L337.3 71.7998H306.5L300.9 80.2998H289L316.5 39.2998H327.5L355.2 80.2998H342.9ZM332.3 63.9998L321.9 48.1998L311.6 63.9998H332.3Z" fill="white"/>
<path d="M362.4 80.2998V39.2998H398C400.8 39.2998 403.3 39.5998 405.5 40.2998C407.7 40.9998 409.6 41.9998 411.1 43.2998C412.6 44.5998 413.8 46.1998 414.6 47.9998C415.4 49.7998 415.8 51.8998 415.8 54.2998C415.8 57.2998 415.1 59.9998 413.7 62.1998C412.3 64.3998 410.2 66.1998 407.5 67.2998C404.8 68.4998 401.6 69.0998 397.8 69.0998H373.1V80.1998H362.4V80.2998ZM373.1 47.4998V60.8998H396.1C398.1 60.8998 399.7 60.6998 401 60.1998C402.3 59.6998 403.3 58.9998 403.9 57.9998C404.5 56.9998 404.9 55.7998 404.9 54.2998C404.9 52.7998 404.6 51.5998 403.9 50.5998C403.3 49.5998 402.3 48.7998 401 48.2998C399.7 47.7998 398.1 47.4998 396.1 47.4998H373.1Z" fill="white"/>
<path d="M425.7 80.2998V39.2998H465.2C467.5 39.2998 469.6 39.4998 471.4 39.9998C473.2 40.4998 474.8 41.1998 476.1 41.9998C477.4 42.8998 478.4 43.9998 479.1 45.2998C479.8 46.5998 480.1 48.0998 480.1 49.6998C480.1 50.7998 479.9 51.8998 479.5 52.9998C479.1 54.0998 478.5 54.9998 477.7 55.8998C476.9 56.7998 475.9 57.4998 474.7 58.1998C474 58.4998 473.3 58.7998 472.6 59.0998C474.2 59.4998 475.5 59.8998 476.7 60.4998C478.5 61.3998 479.8 62.5998 480.7 64.0998C481.6 65.5998 482 67.1998 482 69.0998C482 71.3998 481.4 73.3998 480.2 75.0998C479 76.7998 477.2 78.0998 474.9 78.8998C472.6 79.7998 469.8 80.1998 466.5 80.1998H425.7V80.2998ZM436.2 46.5998V55.9998H463.2C464.2 55.9998 465 55.8998 465.8 55.6998C466.6 55.4998 467.2 55.1998 467.7 54.7998C468.2 54.3998 468.6 53.8998 468.9 53.2998C469.2 52.6998 469.3 51.9998 469.3 51.1998C469.3 50.1998 469.1 49.2998 468.6 48.6998C468.1 47.9998 467.4 47.4998 466.5 47.0998C465.6 46.6998 464.4 46.5998 463 46.5998H436.2ZM436.2 63.1998V72.9998H464.1C465.7 72.9998 467 72.7998 468 72.4998C469 72.0998 469.8 71.5998 470.3 70.8998C470.8 70.1998 471 69.2998 471 68.1998C471 67.0998 470.7 66.0998 470.2 65.3998C469.7 64.6998 468.9 64.0998 467.9 63.7998C466.9 63.3998 465.6 63.1998 464.1 63.1998H436.2Z" fill="white"/>
<path d="M539.5 80.2998L533.9 71.7998H503.1L497.5 80.2998H485.6L513.1 39.2998H524.1L551.8 80.2998H539.5ZM528.9 63.9998L518.5 48.1998L508.1 63.9998H528.9Z" fill="white"/>
<path d="M567.1 80.2999V47.5999H544.3V39.3999H600.6V47.5999H577.7V80.2999H567.1Z" fill="white"/>
<path d="M609.3 80.2998V39.2998H659.6V46.9998H619.6V55.4998H655.6V63.1998H619.6V72.5998H660V80.2998H609.3Z" fill="white"/>
<path d="M670.5 80.2998V39.2998H706.1C708.9 39.2998 711.4 39.5998 713.6 40.2998C715.8 40.9998 717.7 41.9998 719.2 43.2998C720.7 44.5998 721.9 46.1998 722.7 47.9998C723.5 49.7998 723.9 51.8998 723.9 54.2998C723.9 57.2998 723.2 59.9998 721.8 62.1998C720.4 64.3998 718.3 66.1998 715.6 67.2998C712.9 68.4998 709.7 69.0998 705.9 69.0998H681.2V80.1998H670.5V80.2998ZM681.2 47.4998V60.8998H704.2C706.2 60.8998 707.8 60.6998 709.1 60.1998C710.4 59.6998 711.4 58.9998 712 57.9998C712.6 56.9998 713 55.7998 713 54.2998C713 52.7998 712.7 51.5998 712 50.5998C711.4 49.5998 710.4 48.7998 709.1 48.2998C707.8 47.7998 706.2 47.4998 704.2 47.4998H681.2Z" fill="white"/>
<path d="M660 134.4V115.5H664.9V122.8H681.8V115.5H686.7V134.4H681.8V126.6H664.9V134.4H660Z" fill="white"/>
<path d="M693.1 134.4V115.5H698V122.8H714.9V115.5H719.8V134.4H714.9V126.6H698V134.4H693.1Z" fill="white"/>
<path d="M644.4 122.2H218.3V127.7H644.4V122.2Z" fill="white"/>
<path d="M171.6 82.3C157.1 82.3 142.6 82.3 128.1 82.3L111.4 64.1C107.9 60.2 102.3 59 97.4 61C80.1 68.1 62.8 75.3 45.6 82.4C30.4 82.4 15.3 82.4 0.0999756 82.3C0.0999756 83.4 0 84.4 0 85.5C0 97.6 2.5 109 7 119.4C22.4 119.4 37.7 119.4 53.1 119.4L107 97.1C107.9 96.7 109 96.5 110 96.5C112.4 96.5 114.5 97.5 116 99.1C122.2 105.8 128.4 112.6 134.6 119.3C144.6 119.3 154.6 119.3 164.6 119.3C169.1 108.9 171.6 97.4 171.6 85.4C171.7 84.4 171.6 83.4 171.6 82.3Z" fill="white"/>
<path d="M144.6 22.9999C133.5 22.9999 122.5 22.9999 111.4 22.9999C105.8 16.8999 100.3 10.7999 94.6999 4.79991C91.1999 0.89991 85.5999 -0.300066 80.6999 1.69993C63.4999 8.79993 46.2999 15.8999 29.0999 22.9999C28.4999 22.9999 27.7999 22.9999 27.1999 22.9999C16.4999 32.9999 8.3999 45.7999 3.8999 60.0999C14.6999 60.0999 25.5999 60.0999 36.3999 60.0999L90.2999 37.7999C91.1999 37.3999 92.1999 37.1999 93.2999 37.1999C95.6999 37.1999 97.7999 38.1999 99.2999 39.7999C105.5 46.4999 111.7 53.2999 117.8 59.9999C134.4 59.9999 151.1 59.9999 167.7 59.9999C163.4 45.7999 155.3 33.0999 144.6 22.9999Z" fill="white"/>
<path d="M150.7 141.7C148.7 141.7 146.8 141.7 144.8 141.7C139.3 135.6 133.7 129.6 128.2 123.5C124.7 119.6 119.1 118.4 114.2 120.4C97 127.5 79.7999 134.6 62.7 141.7H21.2C36.9 159.8 60.0999 171.3 85.9999 171.3C86.7999 171.3 87.4999 171.3 88.2999 171.2C99.4999 166.6 110.6 162 121.8 157.4C121.8 157.4 121.8 157.4 121.9 157.4C122.6 157.1 123.3 156.8 124 156.5C124.8 156.3 125.7 156.1 126.7 156.1C128 156.1 128.9 156.4 129.5 156.5C130.5 156.8 131.4 157.3 132.1 157.8C139 153.3 145.2 147.9 150.7 141.7Z" fill="white"/>
</svg>
