<svg width="717" height="426" viewBox="0 0 717 426" fill="none" xmlns="http://www.w3.org/2000/svg">
<path d="M682.798 37.8793C622.579 54.015 562.902 70.0053 502.683 86.141C463.446 61.2315 424.752 36.1766 385.661 11.8089C361.011 -4.23359 328.888 -2.59456 305.208 15.3645C222.203 78.8356 139.197 142.307 56.1921 205.778C52.937 206.65 49.1396 207.668 45.8845 208.54C2.35291 278.274 -23.0083 359.4 -26.6614 443.419C31.9303 427.72 91.0646 411.875 149.656 396.175L409.698 197C414 193.525 419.135 190.988 425.103 189.389C438.123 185.9 450.967 188.265 461.428 194.753C504.791 222.042 548.299 249.872 591.119 277.305C681.177 253.174 771.777 228.898 861.835 204.767C817.891 134.082 755.51 77.0473 682.798 37.8793Z" fill="#262626"/>
</svg>
