<svg width="717" height="129" viewBox="0 0 717 129" fill="none" xmlns="http://www.w3.org/2000/svg">
<path d="M915.354 22.9254C836.689 44.0036 758.024 65.0818 679.359 86.16L562.337 11.8278C537.687 -4.21472 505.564 -2.5757 481.885 15.3833C398.337 78.9999 314.934 143.158 231.929 206.63C149.466 228.725 67.5463 250.675 -15.0613 272.229C-13.4644 278.189 -12.555 283.753 -10.958 289.713C6.60825 355.271 36.7212 413.402 76.2328 463.208C159.78 440.822 242.785 418.581 326.333 396.194L586.375 197.019C590.676 193.544 596.354 190.861 601.779 189.408C614.799 185.919 627.644 188.284 638.105 194.772C681.467 222.06 724.975 249.89 768.338 277.179C822.59 262.642 876.841 248.105 931.093 233.568C940.408 170.679 937.275 104.738 919.854 39.7215C918.945 34.1581 916.951 28.8853 915.354 22.9254Z" fill="#262626"/>
</svg>
